<?xml version="1.0" encoding="utf-8" ?><svg xmlns="http://www.w3.org/2000/svg" xmlns:xlink="http://www.w3.org/1999/xlink" width="1067" height="1067" viewBox="0 0 1067 1067"><clipPath id="cl_4"><rect width="1066.6348" height="1066.6348"/></clipPath><g clip-path="url(#cl_4)"><path fill="#FF9E00" transform="matrix(1.22461 0 0 1.22461 -94.2949 -90.6211)" d="M511.047 98.3544C515.52 99.7212 534.386 111.573 539.292 114.517L595.096 147.887L854.38 302.7C853.9 309.323 854.094 318.342 854.092 325.163L854.087 361.472L854.099 475.009L854.109 629.646C854.113 657.2 853.401 688.329 854.475 715.605C775.613 761.815 697.271 808.906 619.464 856.868C584.888 877.884 548.706 900.439 513.681 920.412C512.041 921.018 509.921 919.618 508.48 918.763C481.702 902.874 455.178 886.539 428.55 870.395L297.859 791.638C257.397 767.031 212.701 739.199 171.443 716.148C172.198 697.341 171.479 677.624 171.443 658.661L171.419 553.524L171.419 411.363C171.649 375.9 171.515 340.435 171.016 304.975L370.059 184.118C416.663 155.836 465.043 127.364 511.047 98.3544ZM224.159 685.327C235.631 691.689 248.278 699.956 259.57 706.875L301.095 731.767L426.622 807.65C446.136 819.767 465.767 831.695 485.512 843.432C493.944 848.474 502.416 854.433 511.2 858.755C511.961 859.13 512.725 859.496 513.565 859.266C514.356 859.049 514.058 859.17 514.742 858.693C599.842 808.223 683.576 755.104 768.916 704.996C779.808 698.601 791.386 691.463 801.896 684.509L801.607 380.701C801.472 365.041 801.841 349.813 801.622 333.933C788.414 325.046 772.027 315.644 758.3 307.456L688.329 265.832C671.511 255.816 514.766 161.149 511.319 161.017L223.513 336.033L223.944 568.176L224.042 645.337C224.057 657.554 223.638 673.321 224.159 685.327Z"/><path fill="#FF9E00" transform="matrix(1.22461 0 0 1.22461 -94.2949 -90.6211)" d="M597.94 356.668C601.67 356.879 606.324 356.813 610.17 356.987C638.647 358.28 662.492 367.989 672.069 396.756C674.934 405.364 676.001 415.492 677.202 424.565L681.626 458.045C685.618 486.814 692.149 495.212 722.605 495.601C722.285 506.181 722.537 518.279 722.517 528.973C709.727 529.337 691.607 530.832 686.896 544.672C678.255 570.056 679.719 599.112 672.751 625.114C667.683 644.025 658.86 651.592 642.813 660.817C627.487 667.639 614.133 667.85 597.714 668.043C597.638 656.779 598.398 644.189 597.686 632.98C599.324 632.982 600.963 632.973 602.602 632.953C617.188 632.759 634.881 631.056 638.795 613.894C644.163 590.35 644.344 565.621 649.873 542.031C652.849 529.333 659.541 521.291 668.453 512.139C663.615 506.887 657.135 500.981 654.017 494.247C644.669 473.301 645.597 449.317 641.804 426.848C639.169 411.241 639.146 397.189 619.62 393.039C612.53 391.533 605.081 391.197 597.812 391.731C597.421 381.767 597.838 366.876 597.94 356.668Z"/><path fill="#FF9E00" transform="matrix(1.22461 0 0 1.22461 -94.2949 -90.6211)" d="M409.042 357.188C414.415 356.527 421.492 356.841 427.001 356.96C426.736 368.177 426.941 380.274 426.938 391.559C412.624 392 391.115 391.485 386.252 408.66C378.815 434.922 381.501 464.192 371.87 489.79C368.682 498.265 362.078 505.874 355.675 512.063C379.804 533.381 376.886 558.934 381.385 588.088C383.201 599.857 383.313 617.414 392.704 625.666C400.654 632.652 416.958 633.608 426.932 633.004L426.994 668.109C414.384 668.09 407.187 667.366 394.795 665.193C361.059 655.886 351.201 636.151 347.691 603.459C346.021 589.239 343.728 574.674 341.835 560.544C338.492 535.587 326.623 527.989 301.991 529.345C302.164 518.123 302.18 506.9 302.04 495.677C313.272 495.291 328.277 494.767 335.013 484.135C344.526 469.12 343.568 445.895 346.731 428.511C348.873 416.732 348.945 406.32 353.006 394.941C355.056 389.25 358.018 383.93 361.775 379.189C374.117 363.679 390.35 359.372 409.042 357.188Z"/><path fill="#FF9E00" transform="matrix(1.22461 0 0 1.22461 -94.2949 -90.6211)" d="M444.58 460.206C463.05 459.945 481.522 459.932 499.991 460.168L499.971 491.456C500.107 527.147 503.332 545.707 467.811 562.708C463.72 564.549 459.62 565.816 455.368 567.189C453.526 561.748 451.729 556.547 450.196 551.004C469.968 543.235 475.38 538.201 478.053 516.919C471.488 516.749 454.722 518.94 449.76 514.679C441.641 507.707 445.644 471.969 444.645 460.879L444.58 460.206Z"/><path fill="#FF9E00" transform="matrix(1.22461 0 0 1.22461 -94.2949 -90.6211)" d="M523.002 460.1L578.375 460.133C578.092 469.803 578.009 479.478 578.127 489.151C578.512 524.421 583.165 545.37 547.218 562.537C544.37 563.961 537.358 566.008 534.091 567.017C532.159 561.695 530.22 556.458 528.515 551.056C547.952 544.212 554.65 537.888 556.705 516.966C529.915 516.312 522.192 522.191 523.014 488.475C523.229 479.62 523.015 469.099 523.002 460.1Z"/></g></svg>