<?xml version="1.0" encoding="utf-8" ?><svg xmlns="http://www.w3.org/2000/svg" xmlns:xlink="http://www.w3.org/1999/xlink" width="925" height="927" viewBox="0 0 925 927"><clipPath id="cl_6"><path d="M0.687119 -3.05176e-05L924.95 0.684937L924.263 927.446L0.000305176 926.761L0.687119 -3.05176e-05Z"/></clipPath><g clip-path="url(#cl_6)"><path fill="#FF9E00" transform="matrix(2.49801 0.00185126 -0.00185126 2.49801 -164.061 -162.493)" d="M352.915 96.2761C353.263 96.256 353.611 96.2444 353.959 96.2415C355.246 96.2374 356.932 96.5552 357.954 97.3458C361.79 100.314 365.398 104.257 368.827 107.681L390.947 129.822C391.315 131.672 391.036 136.07 391.015 138.245L391 153.629L391.223 204.562C391.235 211.334 390.945 217.965 391.025 224.816C395.756 228.887 402.781 233.92 407.923 237.783C413.327 241.843 419.842 246.963 425.364 250.716C414.09 258.892 402.103 268.075 390.985 276.579L391.209 312.844L391.237 349.071C391.247 355.667 391.293 362.261 391.218 368.858C391.186 371.724 390.392 372.307 388.487 374.293C386.293 376.579 384.03 378.809 381.796 381.057L361.646 401.309C357.7 405.138 353.808 407.633 349.159 403.089C346.71 400.696 346.235 396.73 348.408 394.038C351.22 390.554 354.618 387.441 357.781 384.28L376.41 365.716C376.185 353.761 376.473 340.729 376.481 328.696L376.509 269.162C384.906 263.175 392.701 256.665 401.138 250.871C393.808 244.905 384.25 237.744 376.51 232.369C376.184 200.359 376.491 167.704 376.519 135.647C373.75 133.472 370.063 129.255 367.362 126.638C361.439 120.815 355.574 114.991 349.863 108.961C345.385 104.234 346.484 98.1502 352.915 96.2761Z"/><path fill="#FF9E00" transform="matrix(2.49801 0.00185126 -0.00185126 2.49801 -164.061 -162.493)" d="M145.623 96.0598C149.704 95.7545 154.373 98.6075 154.443 102.853C154.266 107.985 147.69 112.737 144.323 116.268C138.061 122.835 130.965 128.878 124.889 135.55C124.446 142.484 124.767 153.17 124.757 160.355L124.743 209.142L124.773 222.374C124.797 224.598 125.01 229.874 124.611 231.837C123.453 233.033 119.56 235.781 118.056 236.885C112.482 240.973 105.703 246.876 99.8417 250.246L100.039 250.355C101.893 251.412 103.45 252.522 105.153 253.822C111.664 258.79 118.275 263.717 124.713 268.775C124.886 271.772 124.742 276.174 124.737 279.247L124.739 298.137L124.738 364.825C130.206 370.396 135.735 375.906 141.326 381.354C144.68 384.661 147.58 387.51 151.099 391.334C155.818 396.461 155.806 401.999 148.322 404.592C146.4 405.258 143.589 403.676 141.898 402.413C140.007 401.004 131.148 391.847 129.103 389.71C123.226 383.57 116.031 377.196 110.404 371.054C110.096 368.108 110.248 362.649 110.253 359.525L110.279 339.368L110.299 275.947C108.158 274.616 105.281 272.287 103.19 270.706L91.1024 261.592C87.2622 258.709 78.8289 252.893 75.8462 250.178C82.9342 245.042 89.9367 239.788 96.8506 234.419C101.157 231.138 105.64 227.534 110.257 224.759C110.259 193.304 109.862 161.008 110.287 129.605C111.133 128.417 117.454 122.38 118.863 120.956C123.897 115.824 128.974 110.734 134.095 105.688C136.677 103.132 142.311 96.8211 145.623 96.0598Z"/><path fill="#FF9E00" transform="matrix(2.49801 0.00185126 -0.00185126 2.49801 -164.061 -162.493)" d="M277.519 227.839C280.936 227.458 284.37 228.389 287.127 230.443C292.816 234.635 294.809 243.208 291.156 249.43C288.856 253.348 283.46 255.507 280.507 259.065C278.038 262.041 275.691 265.038 273.339 268.117L262.551 282.288C260.371 285.08 258.161 287.848 255.92 290.591C257.288 287.162 258.324 283.252 259.375 279.681C261.037 274.125 262.635 268.549 264.171 262.956C265.1 259.617 266.364 254.721 267.66 251.616C260.407 242.101 265.427 229.71 277.519 227.839Z"/><path fill="#FF9E00" transform="matrix(2.49801 0.00185126 -0.00185126 2.49801 -164.061 -162.493)" d="M242.414 227.843C245.68 227.502 249.235 228.624 251.853 230.625C257.362 234.836 259.489 243.841 255.675 249.801C253.289 253.529 248.261 255.231 245.349 258.514C242.584 261.632 240.141 265.033 237.617 268.346C234.045 273.018 230.44 277.663 226.803 282.284L220.846 290.177C224.852 277.985 228.301 263.948 232.097 251.354C230.719 249.2 229.073 246.43 228.931 243.834C228.424 234.587 233.598 228.983 242.414 227.843Z"/></g></svg>