<?xml version="1.0" encoding="utf-8" ?><svg xmlns="http://www.w3.org/2000/svg" xmlns:xlink="http://www.w3.org/1999/xlink" width="1254" height="583" viewBox="0 0 1254 583"><clipPath id="cl_5"><rect width="1254" height="583"/></clipPath><g clip-path="url(#cl_5)"><path fill="#FF9E00" transform="translate(0 -315)" d="M507.361 389.727C527.433 389.702 566.759 387.741 583.877 394.145C603.247 401.461 618.925 416.162 627.471 435.021C637.379 457.266 635.086 492.619 635.053 517.372L634.997 603.166L635.019 699.721C635.02 750.795 642.653 799.636 586.555 824.397C570.805 830.973 545.419 829.116 528.102 829.058L459.313 828.953C458.587 780.613 459.26 730.463 459.255 682.002L459.335 390.013C475.133 389.63 491.515 389.769 507.361 389.727ZM570.303 764.94C574.16 759.964 577.459 754.388 577.753 747.958C578.521 731.189 578.175 713.393 578.154 696.599L578.125 598.268L578.173 516.989C578.24 501.814 578.914 485.868 577.722 470.758C577.183 463.934 573.015 456.443 567.408 452.361C555.4 443.622 533.684 445.732 519.057 446.083C518.269 469.93 518.729 495.162 518.766 519.094L518.622 622.549L518.599 723.788C518.658 738.669 518.21 758.26 518.975 772.875C534.367 773.112 558.639 775.5 570.303 764.94Z"/><path fill="#FF9E00" transform="translate(0 -315)" d="M335.833 387.209C357.828 384.929 381.644 392.069 399.066 405.513C416.695 419.116 427.21 438.752 429.793 460.744C431.249 473.14 430.488 487.524 430.435 500.221L430.424 563.806L430.472 638.723C430.477 650.89 431.082 672.614 429.216 683.991C427.074 696.69 421.777 708.647 413.81 718.764C397.995 738.922 377.678 747.643 352.838 750.592C329.381 752.295 306.781 747.582 287.96 732.911C271.408 720.192 260.687 701.333 258.226 680.604C256.711 668.166 257.336 650.924 257.364 637.937L257.44 570.879L257.367 505.148C257.321 490.173 256.558 470.787 258.958 456.503C261.291 442.757 267.033 429.816 275.659 418.863C291.013 399.347 311.609 390.073 335.833 387.209ZM349.375 694.87C365.759 691.335 373.973 682.944 374.403 665.815C374.711 653.556 374.686 641.362 374.692 629.101L374.715 563.868L374.725 504.099C374.731 475.023 379.637 442.31 337.51 445.825C322.759 449.522 313.928 456.811 313.42 472.518C312.954 486.917 313.022 501.097 313.088 515.491L313.233 582.4L313.108 633.794C313.003 646.671 311.294 662.302 314.263 674.719C318.068 690.633 334.443 696.249 349.375 694.87Z"/><path fill="#FF9E00" transform="translate(0 -315)" d="M144.134 386.586C146.684 386.325 149.95 386.386 152.54 386.415C175.089 386.548 196.65 395.679 212.437 411.78C236.822 437.008 235.756 462.06 235.693 493.948C235.703 508.646 235.628 523.343 235.47 538.04L178.702 538.248L178.747 497.308C178.795 487.94 179.345 477.002 177.772 467.857C176.83 462.832 174.643 458.011 171.348 454.116C161.557 442.54 139.649 443.217 129.135 453.376C123.242 459.069 121.4 466.726 121.383 474.73C121.34 495.618 121.416 516.521 121.458 537.418L121.374 649.519L121.135 713.46C121.094 726.434 120.63 740.412 122.136 753.211C123.595 765.617 138.363 773.601 150.004 773.167C182.349 771.961 178.853 745.736 178.794 722.341L178.646 679.656L178.566 669.296C197.588 669.184 216.611 669.213 235.634 669.382L235.715 718.013C235.854 748.099 238.449 773.559 219.274 798.835C205.916 816.265 186.227 827.728 164.474 830.741C138.41 834.222 115.269 829.09 94.186 813.303C79.0456 801.966 64.4687 779.176 63.0544 760.376C61.8633 744.542 62.4069 723.418 62.4255 706.978L62.4615 605.725L62.3849 510.123C62.3669 498.165 61.7132 468.998 63.3128 458.373C65.6363 443.856 71.6611 430.182 80.8063 418.67C96.8882 398.37 119.013 389.382 144.134 386.586Z"/><path fill="#FF9E00" transform="translate(0 -315)" d="M1031.82 390.013C1047.89 389.221 1069.22 389.86 1085.74 389.879L1191.51 389.834L1191.48 445.952C1174.75 446.126 1158.02 446.177 1141.29 446.102L1141.22 777.933L1141.26 829.099L1086.34 829.123C1085.37 787.267 1086.29 741.901 1086.29 699.751L1086.41 446.146C1070.67 445.259 1047.93 446.027 1031.68 446.112C1031.55 427.412 1031.59 408.712 1031.82 390.013Z"/><path fill="#FF9E00" transform="translate(0 -315)" d="M735.263 388.432C760.801 385.738 787.929 395.136 805.45 414.05C814.954 424.256 821.686 436.726 825.003 450.271C829.051 467.205 827.816 506.677 827.713 526.019C827.597 547.926 828.404 574.838 827.538 596.337L772.574 596.333L772.646 551.704C765.556 551.446 757.543 551.592 750.379 551.578C738.108 551.562 725.836 551.62 713.565 551.752C713.98 564.94 714.097 583.331 713.519 596.386L658.485 596.31C657.623 565.557 658.789 534.257 658.278 503.447C658.023 488.064 657.59 468.577 660.69 453.614C663.179 441.725 668.299 430.545 675.673 420.894C691.245 400.461 710.447 391.808 735.263 388.432ZM713.808 502.661L748.542 502.646L772.632 502.683C773.122 476.437 776.768 442.169 738.507 445.852C708.637 452.566 712.992 478.591 713.808 502.661Z"/><path fill="#FF9E00" transform="translate(0 -315)" d="M849.945 389.988C865.344 389.199 886.56 389.901 902.469 389.912L1006.52 389.815L1006.52 442.072L904.397 442.198L904.38 468.472L996.763 468.474L996.733 517.449L915.303 517.54L904.404 517.729C904.555 526.291 904.445 535.174 904.457 543.763L1006.63 543.65L1006.54 596.393C969.39 596.203 932.148 596.637 894.988 596.367C881.95 596.398 869.848 592.883 860.675 583.159C847.207 568.88 849.458 546.808 849.734 528.794C849.821 518.847 849.85 508.899 849.822 498.952C849.827 464.233 848.803 424.439 849.945 389.988Z"/><path fill="#FF9E00" transform="translate(0 -315)" d="M923.779 616.245C925.573 616.123 927.37 616.066 929.168 616.073C957.559 616.443 984.97 630.46 998.697 655.81C1007.96 672.921 1006.68 689.821 1006.55 708.55L953.981 708.536C953.983 699.033 954.86 685.078 948.636 677.466C938.607 665.654 919.013 664.979 907.493 674.87C896.18 684.583 899.701 699.564 899.29 713.002C898.88 726.402 898.621 740.957 900.062 754.274C900.469 758.027 901.977 762.954 904.517 765.675C914.212 776.919 935.939 778.336 946.626 767.816C955.406 759.175 954.127 743.694 953.962 732.314C966.912 731.776 980.298 732.069 993.288 732.202C997.724 732.199 1002.16 732.233 1006.6 732.304C1006.84 757.332 1008.38 781.69 991.593 802.277C962.143 838.395 905.094 841.057 869.771 812.042C841.64 788.935 843.936 758.773 844.225 725.962C844.477 697.409 840.204 667.909 860.76 644.426C878.327 624.137 898.018 618.558 923.779 616.245Z"/><path fill="#FF9E00" transform="translate(0 -315)" d="M700.511 623.623L713.653 623.658L713.479 772.814L827.254 772.762L827.29 829.164L787.73 829.051L714.768 829.067C697.968 828.929 685.51 826.528 673.186 814.189C666.758 807.599 661.821 798.31 660.386 789.128C657.192 768.705 658.299 745.956 658.305 725.253L658.454 623.82C671.584 623.337 687.191 623.699 700.511 623.623Z"/><path fill="#FF9E00" transform="translate(0 -315)" d="M256.87 772.833C314.339 772.09 373.438 772.71 431.031 772.821L431.036 829.037L256.802 829.101L256.87 772.833Z"/></g></svg>