<svg version="1.1" xmlns="http://www.w3.org/2000/svg" viewBox="0 0 2048 2048" width="2048" height="2048" preserveAspectRatio="none" style="display: block;">
  <path fill="rgb(28,28,33)" d="M 544.424 0 L 1490.76 0 C 1504.57 2.35474 1522.14 1.47599 1536.16 2.00424 C 1592.84 4.13831 1655.55 7.68533 1710.23 22.8492 C 1806.84 49.6403 1894.72 111.759 1952.63 193.479 C 2023.04 290.697 2041.36 380.69 2045.25 497.192 C 2045.84 516.453 2046.18 535.721 2046.27 554.99 C 2046.39 565.159 2046.24 583.837 2048 593.467 L 2048 1447.61 C 2045.26 1461.73 2046.22 1485.85 2046.06 1500.84 C 2045.76 1526.72 2044.88 1552.59 2043.44 1578.43 C 2035.9 1693.44 2012.19 1783.46 1939.62 1874.64 C 1913.48 1907.97 1882.73 1937.4 1848.28 1962.05 C 1773.71 2015.06 1697.29 2035.66 1607.22 2042.83 C 1594 2043.89 1581.25 2045.16 1567.9 2045.79 C 1557.18 2046.31 1543 2046.13 1532.67 2048 L 444.837 2048 C 443.302 2046.73 403.409 2042.31 397.481 2041.67 C 205.396 2020.94 44.614 1863.52 12.0561 1674.42 C 6.87425 1644.33 3.37856 1614.9 0.601565 1584.53 C 0.401043 1583.93 0.200522 1583.34 0 1582.75 L 0 559.068 C 2.2442 549.198 1.69314 525.825 2.06949 514.816 C 2.60796 499.066 3.60479 483.54 4.45338 467.894 C 10.298 360.134 34.0819 273.463 99.999 186.712 C 157.447 110.093 239.149 51.6423 331.412 25.0002 C 382.715 10.1861 439.21 5.4145 492.389 2.19733 C 509.135 1.18424 527.8 2.55678 544.424 0 z"></path>
  <path fill="rgb(247,244,242)" d="M 1024.62 353.925 L 1585.38 686.116 C 1586.05 720.214 1585.56 756.059 1585.59 790.313 L 1352.98 1021.58 L 1585.56 1252.01 L 1585.49 1357.87 C 1538.19 1383.6 1488.49 1413.77 1442.17 1441.35 C 1353.45 1493.8 1265.17 1547.02 1177.36 1600.98 C 1128.72 1632.13 1074.62 1663.64 1024.83 1693.39 C 1005.61 1682.73 982.342 1667.59 963.076 1655.96 L 808.473 1561.45 C 696.054 1493.31 583.208 1425.88 469.942 1359.15 L 469.955 686.844 L 1024.62 353.925 z"></path>
  <path fill="rgb(28,28,33)" d="M 1024.01 456.812 C 1029.01 457.377 1459.69 714.329 1500.94 738.398 L 1500.92 754.682 L 1231.69 1021.53 L 1500.87 1289.38 L 1500.95 1306.82 C 1467.43 1324.67 1429.63 1348.92 1396.35 1368.65 C 1329.84 1407.7 1263.57 1447.18 1197.57 1487.08 C 1140.5 1520.03 1081.43 1557.04 1024.91 1591.36 C 868.861 1496.2 712.247 1401.97 555.078 1308.67 L 555.067 737.37 C 606.113 708.925 661.845 674 712.377 643.839 L 1024.01 456.812 z"></path>
  <path fill="rgb(247,244,242)" fill-opacity="0.0235294" d="M 1490.76 0 L 2048 0 L 2048 593.467 C 2046.24 583.837 2046.39 565.159 2046.27 554.99 C 2046.18 535.721 2045.84 516.453 2045.25 497.192 C 2041.36 380.69 2023.04 290.697 1952.63 193.479 C 1894.72 111.759 1806.84 49.6403 1710.23 22.8492 C 1655.55 7.68533 1592.84 4.13831 1536.16 2.00424 C 1522.14 1.47599 1504.57 2.35474 1490.76 0 z"></path>
  <path fill="rgb(247,244,242)" fill-opacity="0.0235294" d="M 0 0 L 544.424 0 C 527.8 2.55678 509.135 1.18424 492.389 2.19733 C 439.21 5.4145 382.715 10.1861 331.412 25.0002 C 239.149 51.6423 157.447 110.093 99.999 186.712 C 34.0819 273.463 10.298 360.134 4.45338 467.894 C 3.60479 483.54 2.60796 499.066 2.06949 514.816 C 1.69314 525.825 2.2442 549.198 0 559.068 L 0 0 z"></path>
  <path fill="rgb(247,244,242)" fill-opacity="0.0235294" d="M 1532.67 2048 C 1543 2046.13 1557.18 2046.31 1567.9 2045.79 C 1581.25 2045.16 1594 2043.89 1607.22 2042.83 C 1697.29 2035.66 1773.71 2015.06 1848.28 1962.05 C 1882.73 1937.4 1913.48 1907.97 1939.62 1874.64 C 2012.19 1783.46 2035.9 1693.44 2043.44 1578.43 C 2044.88 1552.59 2045.76 1526.72 2046.06 1500.84 C 2046.22 1485.85 2045.26 1461.73 2048 1447.61 L 2048 2048 L 1532.67 2048 z"></path>
  <path fill="rgb(247,244,242)" fill-opacity="0.0235294" d="M 0 1582.75 C 0.200522 1583.34 0.401043 1583.93 0.601565 1584.53 C 3.37856 1614.9 6.87425 1644.33 12.0561 1674.42 C 44.614 1863.52 205.396 2020.94 397.481 2041.67 C 403.409 2042.31 443.302 2046.73 444.837 2048 L 0 2048 L 0 1582.75 z"></path>
</svg>
